<mxfile host="app.diagrams.net" agent="Mozilla/5.0 (Macintosh; Intel Mac OS X 10_15_7) AppleWebKit/537.36 (KHTML, like Gecko) Chrome/135.0.0.0 Safari/537.36" version="26.0.16">
  <diagram name="第 1 页" id="l2VwWjS595h71rdYPKjv">
    <mxGraphModel dx="1432" dy="716" grid="0" gridSize="10" guides="1" tooltips="1" connect="1" arrows="1" fold="1" page="1" pageScale="1" pageWidth="827" pageHeight="1169" math="0" shadow="0">
      <root>
        <mxCell id="0" />
        <mxCell id="1" parent="0" />
        <mxCell id="LZrctKfGTnT29_ICG_vk-41" style="edgeStyle=orthogonalEdgeStyle;rounded=0;orthogonalLoop=1;jettySize=auto;html=1;exitX=0.5;exitY=0;exitDx=0;exitDy=0;entryX=0.5;entryY=1;entryDx=0;entryDy=0;" edge="1" parent="1" source="LZrctKfGTnT29_ICG_vk-1" target="LZrctKfGTnT29_ICG_vk-4">
          <mxGeometry relative="1" as="geometry" />
        </mxCell>
        <mxCell id="LZrctKfGTnT29_ICG_vk-1" value="LLM" style="rounded=1;whiteSpace=wrap;html=1;fillColor=#dae8fc;strokeColor=#6c8ebf;" vertex="1" parent="1">
          <mxGeometry x="50" y="273" width="120" height="60" as="geometry" />
        </mxCell>
        <mxCell id="LZrctKfGTnT29_ICG_vk-40" style="edgeStyle=orthogonalEdgeStyle;rounded=0;orthogonalLoop=1;jettySize=auto;html=1;exitX=0.5;exitY=0;exitDx=0;exitDy=0;entryX=0.5;entryY=1;entryDx=0;entryDy=0;" edge="1" parent="1" source="LZrctKfGTnT29_ICG_vk-2" target="LZrctKfGTnT29_ICG_vk-1">
          <mxGeometry relative="1" as="geometry" />
        </mxCell>
        <mxCell id="LZrctKfGTnT29_ICG_vk-2" value="ASR&amp;nbsp;" style="rounded=1;whiteSpace=wrap;html=1;fillColor=#d5e8d4;strokeColor=#82b366;" vertex="1" parent="1">
          <mxGeometry x="69.5" y="357" width="81" height="38" as="geometry" />
        </mxCell>
        <mxCell id="LZrctKfGTnT29_ICG_vk-146" style="edgeStyle=orthogonalEdgeStyle;rounded=0;orthogonalLoop=1;jettySize=auto;html=1;exitX=0.5;exitY=0;exitDx=0;exitDy=0;entryX=0.5;entryY=1;entryDx=0;entryDy=0;" edge="1" parent="1" source="LZrctKfGTnT29_ICG_vk-4" target="LZrctKfGTnT29_ICG_vk-7">
          <mxGeometry relative="1" as="geometry" />
        </mxCell>
        <mxCell id="LZrctKfGTnT29_ICG_vk-4" value="TTS" style="rounded=1;whiteSpace=wrap;html=1;fillColor=#fff2cc;strokeColor=#d6b656;" vertex="1" parent="1">
          <mxGeometry x="71.5" y="211" width="79" height="42" as="geometry" />
        </mxCell>
        <mxCell id="LZrctKfGTnT29_ICG_vk-145" style="edgeStyle=orthogonalEdgeStyle;rounded=0;orthogonalLoop=1;jettySize=auto;html=1;exitX=0.5;exitY=0;exitDx=0;exitDy=0;entryX=0.5;entryY=1;entryDx=0;entryDy=0;" edge="1" parent="1" source="LZrctKfGTnT29_ICG_vk-5" target="LZrctKfGTnT29_ICG_vk-2">
          <mxGeometry relative="1" as="geometry" />
        </mxCell>
        <mxCell id="LZrctKfGTnT29_ICG_vk-5" value="Audio" style="text;html=1;align=center;verticalAlign=middle;whiteSpace=wrap;rounded=0;" vertex="1" parent="1">
          <mxGeometry x="81" y="419" width="60" height="29.5" as="geometry" />
        </mxCell>
        <mxCell id="LZrctKfGTnT29_ICG_vk-7" value="Audio" style="text;html=1;align=center;verticalAlign=middle;whiteSpace=wrap;rounded=0;" vertex="1" parent="1">
          <mxGeometry x="83" y="167.5" width="60" height="23.5" as="geometry" />
        </mxCell>
        <mxCell id="LZrctKfGTnT29_ICG_vk-8" value="Qwen2.5-Omni,VITA-1.5, LLaMA-Omni,Freeze-Omni,..." style="rounded=0;whiteSpace=wrap;html=1;fillColor=#eeeeee;strokeColor=#36393d;" vertex="1" parent="1">
          <mxGeometry x="225" y="452" width="127" height="47" as="geometry" />
        </mxCell>
        <mxCell id="LZrctKfGTnT29_ICG_vk-9" value="a) Cascade System" style="text;html=1;align=center;verticalAlign=middle;whiteSpace=wrap;rounded=0;" vertex="1" parent="1">
          <mxGeometry x="60" y="515" width="100" height="40" as="geometry" />
        </mxCell>
        <mxCell id="LZrctKfGTnT29_ICG_vk-28" style="edgeStyle=orthogonalEdgeStyle;rounded=0;orthogonalLoop=1;jettySize=auto;html=1;exitX=0.75;exitY=0;exitDx=0;exitDy=0;entryX=0.5;entryY=1;entryDx=0;entryDy=0;" edge="1" parent="1" source="LZrctKfGTnT29_ICG_vk-10" target="LZrctKfGTnT29_ICG_vk-26">
          <mxGeometry relative="1" as="geometry" />
        </mxCell>
        <mxCell id="LZrctKfGTnT29_ICG_vk-10" value="LLM" style="rounded=1;whiteSpace=wrap;html=1;fillColor=#dae8fc;strokeColor=#6c8ebf;" vertex="1" parent="1">
          <mxGeometry x="227" y="273" width="130" height="60" as="geometry" />
        </mxCell>
        <mxCell id="LZrctKfGTnT29_ICG_vk-14" value="connector" style="rounded=1;whiteSpace=wrap;html=1;fillColor=#d5e8d4;strokeColor=#82b366;" vertex="1" parent="1">
          <mxGeometry x="228" y="344" width="60" height="20" as="geometry" />
        </mxCell>
        <mxCell id="LZrctKfGTnT29_ICG_vk-15" value="audio encoder" style="rounded=1;whiteSpace=wrap;html=1;fillColor=#d5e8d4;strokeColor=#82b366;" vertex="1" parent="1">
          <mxGeometry x="228" y="370" width="60" height="30" as="geometry" />
        </mxCell>
        <mxCell id="LZrctKfGTnT29_ICG_vk-16" value="text embedding" style="rounded=1;whiteSpace=wrap;html=1;fillColor=#d5e8d4;strokeColor=#82b366;" vertex="1" parent="1">
          <mxGeometry x="295" y="344" width="62" height="34" as="geometry" />
        </mxCell>
        <mxCell id="LZrctKfGTnT29_ICG_vk-20" value="connector" style="rounded=1;whiteSpace=wrap;html=1;fillColor=#fff2cc;strokeColor=#d6b656;" vertex="1" parent="1">
          <mxGeometry x="228" y="248" width="60" height="15" as="geometry" />
        </mxCell>
        <mxCell id="LZrctKfGTnT29_ICG_vk-39" style="edgeStyle=orthogonalEdgeStyle;rounded=0;orthogonalLoop=1;jettySize=auto;html=1;exitX=0.5;exitY=0;exitDx=0;exitDy=0;entryX=0.5;entryY=1;entryDx=0;entryDy=0;" edge="1" parent="1" source="LZrctKfGTnT29_ICG_vk-21" target="LZrctKfGTnT29_ICG_vk-37">
          <mxGeometry relative="1" as="geometry" />
        </mxCell>
        <mxCell id="LZrctKfGTnT29_ICG_vk-21" value="audio decoder" style="rounded=1;whiteSpace=wrap;html=1;fillColor=#fff2cc;strokeColor=#d6b656;" vertex="1" parent="1">
          <mxGeometry x="228" y="211" width="60" height="30" as="geometry" />
        </mxCell>
        <mxCell id="LZrctKfGTnT29_ICG_vk-26" value="Text" style="text;html=1;align=center;verticalAlign=middle;whiteSpace=wrap;rounded=0;" vertex="1" parent="1">
          <mxGeometry x="295" y="171" width="59" height="17" as="geometry" />
        </mxCell>
        <mxCell id="LZrctKfGTnT29_ICG_vk-34" style="edgeStyle=orthogonalEdgeStyle;rounded=0;orthogonalLoop=1;jettySize=auto;html=1;exitX=0.5;exitY=0;exitDx=0;exitDy=0;entryX=0.5;entryY=1;entryDx=0;entryDy=0;" edge="1" parent="1" source="LZrctKfGTnT29_ICG_vk-30" target="LZrctKfGTnT29_ICG_vk-16">
          <mxGeometry relative="1" as="geometry" />
        </mxCell>
        <mxCell id="LZrctKfGTnT29_ICG_vk-30" value="Text" style="text;html=1;align=center;verticalAlign=middle;whiteSpace=wrap;rounded=0;" vertex="1" parent="1">
          <mxGeometry x="298.5" y="419" width="55" height="22" as="geometry" />
        </mxCell>
        <mxCell id="LZrctKfGTnT29_ICG_vk-38" style="edgeStyle=orthogonalEdgeStyle;rounded=0;orthogonalLoop=1;jettySize=auto;html=1;exitX=0.5;exitY=0;exitDx=0;exitDy=0;entryX=0.5;entryY=1;entryDx=0;entryDy=0;" edge="1" parent="1" source="LZrctKfGTnT29_ICG_vk-36" target="LZrctKfGTnT29_ICG_vk-15">
          <mxGeometry relative="1" as="geometry" />
        </mxCell>
        <mxCell id="LZrctKfGTnT29_ICG_vk-36" value="Audio" style="text;html=1;align=center;verticalAlign=middle;whiteSpace=wrap;rounded=0;" vertex="1" parent="1">
          <mxGeometry x="228" y="418.5" width="60" height="25" as="geometry" />
        </mxCell>
        <mxCell id="LZrctKfGTnT29_ICG_vk-37" value="Audio" style="text;html=1;align=center;verticalAlign=middle;whiteSpace=wrap;rounded=0;" vertex="1" parent="1">
          <mxGeometry x="231" y="171" width="58" height="16.5" as="geometry" />
        </mxCell>
        <mxCell id="LZrctKfGTnT29_ICG_vk-43" value="" style="endArrow=none;dashed=1;html=1;rounded=0;" edge="1" parent="1">
          <mxGeometry width="50" height="50" relative="1" as="geometry">
            <mxPoint x="190" y="543" as="sourcePoint" />
            <mxPoint x="192" y="173" as="targetPoint" />
          </mxGeometry>
        </mxCell>
        <mxCell id="LZrctKfGTnT29_ICG_vk-45" value="" style="endArrow=none;dashed=1;html=1;rounded=0;" edge="1" parent="1">
          <mxGeometry width="50" height="50" relative="1" as="geometry">
            <mxPoint x="381" y="545" as="sourcePoint" />
            <mxPoint x="383" y="169" as="targetPoint" />
          </mxGeometry>
        </mxCell>
        <mxCell id="LZrctKfGTnT29_ICG_vk-115" style="edgeStyle=orthogonalEdgeStyle;rounded=0;orthogonalLoop=1;jettySize=auto;html=1;exitX=0.25;exitY=0;exitDx=0;exitDy=0;entryX=0.5;entryY=1;entryDx=0;entryDy=0;" edge="1" parent="1" source="LZrctKfGTnT29_ICG_vk-46" target="LZrctKfGTnT29_ICG_vk-113">
          <mxGeometry relative="1" as="geometry" />
        </mxCell>
        <mxCell id="LZrctKfGTnT29_ICG_vk-147" style="edgeStyle=orthogonalEdgeStyle;rounded=0;orthogonalLoop=1;jettySize=auto;html=1;exitX=0.75;exitY=0;exitDx=0;exitDy=0;entryX=0.5;entryY=1;entryDx=0;entryDy=0;" edge="1" parent="1" source="LZrctKfGTnT29_ICG_vk-46" target="LZrctKfGTnT29_ICG_vk-114">
          <mxGeometry relative="1" as="geometry" />
        </mxCell>
        <mxCell id="LZrctKfGTnT29_ICG_vk-46" value="LLM" style="rounded=1;whiteSpace=wrap;html=1;fillColor=#dae8fc;strokeColor=#6c8ebf;gradientColor=light-dark(#fff2cc, #EDEDED);gradientDirection=radial;" vertex="1" parent="1">
          <mxGeometry x="408" y="273" width="131" height="62" as="geometry" />
        </mxCell>
        <mxCell id="LZrctKfGTnT29_ICG_vk-47" value="b) Modular MLLMs" style="text;html=1;align=center;verticalAlign=middle;whiteSpace=wrap;rounded=0;" vertex="1" parent="1">
          <mxGeometry x="258.5" y="520" width="60" height="30" as="geometry" />
        </mxCell>
        <mxCell id="LZrctKfGTnT29_ICG_vk-103" value="connector" style="rounded=1;whiteSpace=wrap;html=1;fillColor=#d5e8d4;strokeColor=#82b366;" vertex="1" parent="1">
          <mxGeometry x="408" y="344" width="60" height="20" as="geometry" />
        </mxCell>
        <mxCell id="LZrctKfGTnT29_ICG_vk-104" value="audio encoder" style="rounded=1;whiteSpace=wrap;html=1;fillColor=#d5e8d4;strokeColor=#82b366;" vertex="1" parent="1">
          <mxGeometry x="408" y="370" width="60" height="30" as="geometry" />
        </mxCell>
        <mxCell id="LZrctKfGTnT29_ICG_vk-106" style="edgeStyle=orthogonalEdgeStyle;rounded=0;orthogonalLoop=1;jettySize=auto;html=1;exitX=0.5;exitY=0;exitDx=0;exitDy=0;entryX=0.5;entryY=1;entryDx=0;entryDy=0;" edge="1" parent="1" source="LZrctKfGTnT29_ICG_vk-105" target="LZrctKfGTnT29_ICG_vk-104">
          <mxGeometry relative="1" as="geometry" />
        </mxCell>
        <mxCell id="LZrctKfGTnT29_ICG_vk-105" value="Audio" style="text;html=1;align=center;verticalAlign=middle;whiteSpace=wrap;rounded=0;" vertex="1" parent="1">
          <mxGeometry x="408" y="422" width="60" height="25" as="geometry" />
        </mxCell>
        <mxCell id="LZrctKfGTnT29_ICG_vk-109" value="text embedding" style="rounded=1;whiteSpace=wrap;html=1;fillColor=#d5e8d4;strokeColor=#82b366;" vertex="1" parent="1">
          <mxGeometry x="478" y="346" width="63" height="32" as="geometry" />
        </mxCell>
        <mxCell id="LZrctKfGTnT29_ICG_vk-111" style="edgeStyle=orthogonalEdgeStyle;rounded=0;orthogonalLoop=1;jettySize=auto;html=1;exitX=0.5;exitY=0;exitDx=0;exitDy=0;entryX=0.5;entryY=1;entryDx=0;entryDy=0;" edge="1" parent="1" source="LZrctKfGTnT29_ICG_vk-110" target="LZrctKfGTnT29_ICG_vk-109">
          <mxGeometry relative="1" as="geometry" />
        </mxCell>
        <mxCell id="LZrctKfGTnT29_ICG_vk-110" value="Text" style="text;html=1;align=center;verticalAlign=middle;whiteSpace=wrap;rounded=0;" vertex="1" parent="1">
          <mxGeometry x="482" y="423.5" width="55" height="22" as="geometry" />
        </mxCell>
        <mxCell id="LZrctKfGTnT29_ICG_vk-113" value="Audio" style="text;html=1;align=center;verticalAlign=middle;whiteSpace=wrap;rounded=0;" vertex="1" parent="1">
          <mxGeometry x="408" y="221" width="60" height="30" as="geometry" />
        </mxCell>
        <mxCell id="LZrctKfGTnT29_ICG_vk-114" value="Text" style="text;html=1;align=center;verticalAlign=middle;whiteSpace=wrap;rounded=0;" vertex="1" parent="1">
          <mxGeometry x="475" y="221" width="60" height="30" as="geometry" />
        </mxCell>
        <mxCell id="LZrctKfGTnT29_ICG_vk-117" value="c) Native MLLMs" style="text;html=1;align=center;verticalAlign=middle;whiteSpace=wrap;rounded=0;" vertex="1" parent="1">
          <mxGeometry x="529" y="520" width="60" height="30" as="geometry" />
        </mxCell>
        <mxCell id="LZrctKfGTnT29_ICG_vk-119" style="edgeStyle=orthogonalEdgeStyle;rounded=0;orthogonalLoop=1;jettySize=auto;html=1;exitX=0.25;exitY=0;exitDx=0;exitDy=0;entryX=0.5;entryY=1;entryDx=0;entryDy=0;" edge="1" parent="1" source="LZrctKfGTnT29_ICG_vk-121" target="LZrctKfGTnT29_ICG_vk-132">
          <mxGeometry relative="1" as="geometry" />
        </mxCell>
        <mxCell id="LZrctKfGTnT29_ICG_vk-120" style="edgeStyle=orthogonalEdgeStyle;rounded=0;orthogonalLoop=1;jettySize=auto;html=1;exitX=0.75;exitY=0;exitDx=0;exitDy=0;entryX=0.5;entryY=1;entryDx=0;entryDy=0;" edge="1" parent="1" source="LZrctKfGTnT29_ICG_vk-121" target="LZrctKfGTnT29_ICG_vk-133">
          <mxGeometry relative="1" as="geometry" />
        </mxCell>
        <mxCell id="LZrctKfGTnT29_ICG_vk-121" value="LLM" style="rounded=1;whiteSpace=wrap;html=1;align=right;fillColor=#dae8fc;strokeColor=#6c8ebf;" vertex="1" parent="1">
          <mxGeometry x="566.5" y="273" width="131" height="62" as="geometry" />
        </mxCell>
        <mxCell id="LZrctKfGTnT29_ICG_vk-122" value="connector" style="rounded=1;whiteSpace=wrap;html=1;fillColor=#d5e8d4;strokeColor=#82b366;" vertex="1" parent="1">
          <mxGeometry x="565" y="344" width="60" height="20" as="geometry" />
        </mxCell>
        <mxCell id="LZrctKfGTnT29_ICG_vk-124" value="audio encoder" style="rounded=1;whiteSpace=wrap;html=1;fillColor=#d5e8d4;strokeColor=#82b366;" vertex="1" parent="1">
          <mxGeometry x="565" y="370" width="60" height="30" as="geometry" />
        </mxCell>
        <mxCell id="LZrctKfGTnT29_ICG_vk-125" style="edgeStyle=orthogonalEdgeStyle;rounded=0;orthogonalLoop=1;jettySize=auto;html=1;exitX=0.5;exitY=0;exitDx=0;exitDy=0;entryX=0.5;entryY=1;entryDx=0;entryDy=0;" edge="1" parent="1" source="LZrctKfGTnT29_ICG_vk-126" target="LZrctKfGTnT29_ICG_vk-124">
          <mxGeometry relative="1" as="geometry" />
        </mxCell>
        <mxCell id="LZrctKfGTnT29_ICG_vk-126" value="Audio" style="text;html=1;align=center;verticalAlign=middle;whiteSpace=wrap;rounded=0;" vertex="1" parent="1">
          <mxGeometry x="565" y="422" width="60" height="25" as="geometry" />
        </mxCell>
        <mxCell id="LZrctKfGTnT29_ICG_vk-129" value="text embedding" style="rounded=1;whiteSpace=wrap;html=1;fillColor=#d5e8d4;strokeColor=#82b366;" vertex="1" parent="1">
          <mxGeometry x="637.5" y="346" width="60.5" height="32" as="geometry" />
        </mxCell>
        <mxCell id="LZrctKfGTnT29_ICG_vk-130" style="edgeStyle=orthogonalEdgeStyle;rounded=0;orthogonalLoop=1;jettySize=auto;html=1;exitX=0.5;exitY=0;exitDx=0;exitDy=0;entryX=0.5;entryY=1;entryDx=0;entryDy=0;" edge="1" parent="1" source="LZrctKfGTnT29_ICG_vk-131" target="LZrctKfGTnT29_ICG_vk-129">
          <mxGeometry relative="1" as="geometry" />
        </mxCell>
        <mxCell id="LZrctKfGTnT29_ICG_vk-131" value="Text" style="text;html=1;align=center;verticalAlign=middle;whiteSpace=wrap;rounded=0;" vertex="1" parent="1">
          <mxGeometry x="640" y="422.75" width="55" height="22" as="geometry" />
        </mxCell>
        <mxCell id="LZrctKfGTnT29_ICG_vk-132" value="Audio" style="text;html=1;align=center;verticalAlign=middle;whiteSpace=wrap;rounded=0;" vertex="1" parent="1">
          <mxGeometry x="565" y="223" width="60" height="30" as="geometry" />
        </mxCell>
        <mxCell id="LZrctKfGTnT29_ICG_vk-133" value="Text" style="text;html=1;align=center;verticalAlign=middle;whiteSpace=wrap;rounded=0;" vertex="1" parent="1">
          <mxGeometry x="632" y="224" width="60" height="24" as="geometry" />
        </mxCell>
        <mxCell id="LZrctKfGTnT29_ICG_vk-134" value="Acoustical&amp;nbsp;&lt;br&gt;Experts" style="rounded=1;whiteSpace=wrap;html=1;fillColor=#fff2cc;strokeColor=#d6b656;" vertex="1" parent="1">
          <mxGeometry x="573.88" y="286.25" width="87.75" height="33.5" as="geometry" />
        </mxCell>
        <mxCell id="LZrctKfGTnT29_ICG_vk-135" value="Mini-Omni,Moshi,GLM-4-Voice,LUCY,..." style="rounded=0;whiteSpace=wrap;html=1;" vertex="1" parent="1">
          <mxGeometry x="408" y="450" width="130" height="51" as="geometry" />
        </mxCell>
        <mxCell id="LZrctKfGTnT29_ICG_vk-136" value="DeepTalk&lt;br&gt;(ours)" style="rounded=0;whiteSpace=wrap;html=1;fillColor=#eeeeee;strokeColor=#36393d;" vertex="1" parent="1">
          <mxGeometry x="598" y="450" width="78" height="52" as="geometry" />
        </mxCell>
        <mxCell id="LZrctKfGTnT29_ICG_vk-137" value="Traditional Speech Interaction System" style="rounded=0;whiteSpace=wrap;html=1;gradientDirection=north;" vertex="1" parent="1">
          <mxGeometry x="56" y="451" width="110" height="49" as="geometry" />
        </mxCell>
        <mxCell id="LZrctKfGTnT29_ICG_vk-138" value="acoustical decoding" style="rounded=1;whiteSpace=wrap;html=1;fillColor=#fff2cc;strokeColor=#d6b656;" vertex="1" parent="1">
          <mxGeometry x="430" y="176" width="86" height="25" as="geometry" />
        </mxCell>
        <mxCell id="LZrctKfGTnT29_ICG_vk-139" value="textual decoding" style="rounded=1;whiteSpace=wrap;html=1;fillColor=#dae8fc;strokeColor=#6c8ebf;" vertex="1" parent="1">
          <mxGeometry x="585" y="176" width="86" height="25" as="geometry" />
        </mxCell>
        <mxCell id="LZrctKfGTnT29_ICG_vk-143" style="edgeStyle=orthogonalEdgeStyle;rounded=0;orthogonalLoop=1;jettySize=auto;html=1;exitX=0.5;exitY=1;exitDx=0;exitDy=0;" edge="1" parent="1" source="LZrctKfGTnT29_ICG_vk-26" target="LZrctKfGTnT29_ICG_vk-26">
          <mxGeometry relative="1" as="geometry" />
        </mxCell>
        <mxCell id="LZrctKfGTnT29_ICG_vk-144" style="edgeStyle=orthogonalEdgeStyle;rounded=0;orthogonalLoop=1;jettySize=auto;html=1;exitX=0.5;exitY=1;exitDx=0;exitDy=0;" edge="1" parent="1" source="LZrctKfGTnT29_ICG_vk-5" target="LZrctKfGTnT29_ICG_vk-5">
          <mxGeometry relative="1" as="geometry" />
        </mxCell>
      </root>
    </mxGraphModel>
  </diagram>
</mxfile>
